if (_typeface_js && _typeface_js.loadFace) _typeface_js.loadFace({"glyphs":{"0":{"ha":1158,"x_min":0,"x_max":0,"o":"m 899 1000 b 1026 947 949 1000 991 982 b 1079 819 1062 912 1079 869 l 1079 181 b 1026 53 1079 131 1062 88 b 899 0 991 18 949 0 l 260 0 b 132 53 210 0 167 18 b 79 181 97 88 79 131 l 79 819 b 132 947 79 869 97 912 b 260 1000 167 982 210 1000 m 260 850 b 238 841 251 850 244 847 b 229 819 232 835 229 828 l 229 304 l 879 850 m 899 150 b 920 159 907 150 914 153 b 929 181 926 165 929 172 l 929 696 l 279 150 "},"1":{"ha":543,"x_min":0,"x_max":0,"o":"m 283 1000 l 463 1000 l 463 0 l 313 0 l 313 800 l 197 663 l 1 663 "},"2":{"ha":1153,"x_min":0,"x_max":0,"o":"m 899 1000 b 1026 947 949 1000 991 982 b 1079 819 1062 912 1079 869 l 1079 592 b 1026 464 1079 542 1062 499 b 899 411 991 429 949 411 l 260 411 b 238 402 251 411 244 408 b 229 381 232 396 229 389 l 229 181 b 238 159 229 172 232 165 b 260 150 244 153 251 150 l 1079 150 l 1079 0 l 79 0 l 79 381 b 132 508 79 431 97 473 b 260 561 167 544 210 561 l 899 561 b 920 570 907 561 914 564 b 929 592 926 576 929 583 l 929 819 b 920 841 929 828 926 835 b 899 850 914 847 907 850 l 260 850 b 238 841 251 850 244 847 b 229 819 232 835 229 828 l 229 761 l 79 761 l 79 819 b 132 947 79 869 97 912 b 260 1000 167 982 210 1000 "},"3":{"ha":1147,"x_min":0,"x_max":0,"o":"m 1014 538 b 1074 404 1054 502 1074 458 l 1074 181 b 1021 53 1074 131 1056 88 b 893 0 986 18 943 0 l 254 0 b 126 53 204 0 162 18 b 74 181 91 88 74 131 l 74 222 l 224 222 l 224 181 b 233 159 224 172 227 165 b 254 150 239 153 246 150 l 893 150 b 915 159 901 150 909 153 b 924 181 921 165 924 172 l 924 404 b 915 426 924 413 921 420 b 893 435 909 432 901 435 l 254 435 l 254 585 l 851 585 b 873 594 860 585 867 588 b 882 615 879 600 882 607 l 882 819 b 873 841 882 828 879 835 b 851 850 867 847 860 850 l 254 850 b 233 841 246 850 239 847 b 224 819 227 835 224 828 l 224 764 l 74 764 l 74 819 b 126 947 74 869 91 912 b 254 1000 162 982 204 1000 l 851 1000 b 979 947 901 1000 944 982 b 1032 819 1014 912 1032 869 l 1032 615 b 1014 538 1032 589 1026 563 "},"4":{"ha":1014,"x_min":0,"x_max":0,"o":"m 967 404 l 967 254 l 819 254 l 819 0 l 669 0 l 669 254 l 8 254 l 8 404 l 669 1000 l 819 1000 l 819 404 m 226 404 l 669 404 l 669 764 "},"5":{"ha":1153,"x_min":0,"x_max":0,"o":"m 229 619 b 238 598 229 611 232 604 b 260 589 244 592 251 589 l 899 589 b 1026 536 949 589 991 571 b 1079 408 1062 501 1079 458 l 1079 181 b 1026 53 1079 131 1062 88 b 899 0 991 18 949 0 l 260 0 b 132 53 210 0 167 18 b 79 181 97 88 79 131 l 79 239 l 229 239 l 229 181 b 238 159 229 172 232 165 b 260 150 244 153 251 150 l 899 150 b 920 159 907 150 914 153 b 929 181 926 165 929 172 l 929 408 b 920 430 929 417 926 424 b 899 439 914 436 907 439 l 79 439 l 79 589 l 82 589 b 79 619 80 602 79 612 l 79 1000 l 1079 1000 l 1079 850 l 260 850 b 238 841 251 850 244 847 b 229 819 232 835 229 828 "},"6":{"ha":1139,"x_min":0,"x_max":0,"o":"m 899 589 b 1026 536 949 589 991 571 b 1079 408 1062 501 1079 458 l 1079 181 b 1026 53 1079 131 1062 88 b 899 0 991 18 949 0 l 260 0 b 132 53 210 0 167 18 b 79 181 97 88 79 131 l 79 819 b 132 947 79 869 97 912 b 260 1000 167 982 210 1000 l 913 1000 l 913 850 l 260 850 b 238 841 251 850 244 847 b 229 819 232 835 229 828 l 229 619 b 238 598 229 611 232 604 b 260 589 244 592 251 589 l 732 589 m 929 408 b 920 430 929 417 926 424 b 899 439 914 436 907 439 l 229 439 l 229 181 b 238 159 229 172 232 165 b 260 150 244 153 251 150 l 899 150 b 920 159 907 150 914 153 b 929 181 926 165 929 172 "},"7":{"ha":917,"x_min":0,"x_max":0,"o":"m 657 1000 b 785 947 707 1000 750 982 b 838 819 820 912 838 869 l 838 0 l 688 0 l 688 819 b 678 841 688 828 684 835 b 657 850 672 847 665 850 l 4 850 l 4 1000 l 18 1000 "},"8":{"ha":1158,"x_min":0,"x_max":0,"o":"m 1079 619 b 1044 514 1079 580 1068 544 b 1079 408 1068 483 1079 448 l 1079 181 b 1026 53 1079 131 1062 88 b 899 0 991 18 949 0 l 260 0 b 132 53 210 0 167 18 b 79 181 97 88 79 131 l 79 408 b 114 514 79 448 91 483 b 79 619 91 544 79 580 l 79 819 b 132 947 79 869 97 912 b 260 1000 167 982 210 1000 l 899 1000 b 1017 957 943 1000 982 986 b 1079 850 1051 928 1072 893 m 929 408 b 920 430 929 417 926 424 b 899 439 914 436 907 439 l 260 439 b 238 430 251 439 244 436 b 229 408 232 424 229 417 l 229 181 b 238 159 229 172 232 165 b 260 150 244 153 251 150 l 899 150 b 920 159 907 150 914 153 b 929 181 926 165 929 172 m 929 818 b 920 840 929 826 926 834 b 899 849 914 846 907 849 l 260 849 b 238 840 251 849 244 846 b 229 818 232 834 229 826 l 229 604 b 238 583 229 596 232 589 b 260 574 244 577 251 574 l 899 574 b 920 583 907 574 914 577 b 929 604 926 589 929 596 "},"9":{"ha":1150,"x_min":0,"x_max":0,"o":"m 251 411 b 124 464 201 411 159 429 b 71 592 88 499 71 542 l 71 819 b 124 947 71 869 88 912 b 251 1000 159 982 201 1000 l 890 1000 b 1018 947 940 1000 983 982 b 1071 819 1053 912 1071 869 l 1071 181 b 1018 53 1071 131 1053 88 b 890 0 983 18 940 0 l 251 0 b 135 43 207 0 168 14 b 74 150 101 72 81 107 l 890 150 b 912 159 899 150 906 153 b 921 181 918 165 921 172 l 921 381 b 912 402 921 389 918 396 b 890 411 906 408 899 411 l 418 411 m 221 592 b 230 570 221 583 224 576 b 251 561 236 564 243 561 l 921 561 l 921 819 b 912 841 921 828 918 835 b 890 850 906 847 899 850 l 251 850 b 230 841 243 850 236 847 b 221 819 224 835 221 828 "}," ":{"ha":403,"x_min":0,"x_max":0,"o":""},"!":{"ha":306,"x_min":0,"x_max":0,"o":"m 81 0 l 81 150 l 231 150 l 231 0 m 81 1000 l 231 1000 l 231 278 l 81 278 "},"\"":{"ha":517,"x_min":0,"x_max":0,"o":"m 232 774 l 82 774 l 82 999 l 232 999 m 436 774 l 286 774 l 286 999 l 436 999 "},"#":{"ha":1107,"x_min":0,"x_max":0,"o":"m 1063 625 l 897 625 l 817 378 l 1019 378 l 1019 228 l 769 228 l 700 0 l 550 0 l 619 228 l 321 228 l 251 0 l 101 0 l 171 228 l 44 228 l 44 378 l 218 378 l 299 625 l 88 625 l 88 775 l 346 775 l 421 996 l 571 996 l 496 775 l 794 775 l 869 996 l 1019 996 l 944 775 l 1063 775 m 667 378 l 747 625 l 449 625 l 368 378 "},"$":{"ha":1094,"x_min":0,"x_max":0,"o":"m 1047 761 l 897 761 l 897 819 b 888 841 897 828 894 835 b 867 850 882 847 875 850 l 622 850 l 622 575 l 867 575 b 994 522 917 575 959 557 b 1047 394 1030 487 1047 444 l 1047 181 b 994 53 1047 131 1030 88 b 867 0 959 18 917 0 l 622 0 l 622 -150 l 472 -150 l 472 0 l 228 0 b 100 53 178 0 135 18 b 47 181 65 88 47 131 l 47 239 l 197 239 l 197 181 b 206 159 197 172 200 165 b 228 150 212 153 219 150 l 472 150 l 472 425 l 228 425 b 100 478 178 425 135 443 b 47 606 65 513 47 556 l 47 819 b 100 947 47 869 65 912 b 228 1000 135 982 178 1000 l 472 1000 l 472 1150 l 622 1150 l 622 1000 l 867 1000 b 994 947 917 1000 959 982 b 1047 819 1030 912 1047 869 m 622 425 l 622 150 l 867 150 b 888 159 875 150 882 153 b 897 181 894 165 897 172 l 897 394 b 888 416 897 403 894 410 b 867 425 882 422 875 425 m 472 575 l 472 850 l 228 850 b 206 841 219 850 212 847 b 197 819 200 835 197 828 l 197 606 b 206 584 197 597 200 590 b 228 575 212 578 219 575 l 363 575 "},"%":{"ha":1342,"x_min":0,"x_max":0,"o":"m 1183 1000 l 1183 822 l 204 0 l 183 0 l 183 178 l 1163 1000 m 372 1000 b 500 947 422 1000 465 982 b 553 819 535 912 553 869 l 553 708 b 500 581 553 658 535 616 b 372 528 465 545 422 528 l 247 528 b 119 581 197 528 155 545 b 67 708 84 616 67 658 l 67 819 b 119 947 67 869 84 912 b 247 1000 155 982 197 1000 m 400 650 b 422 659 408 650 416 653 b 431 681 428 665 431 672 l 431 847 b 422 869 431 856 428 863 b 400 878 416 875 408 878 l 219 878 b 198 869 211 878 204 875 b 189 847 192 863 189 856 l 189 681 b 198 659 189 672 192 665 b 219 650 204 653 211 650 m 1092 471 b 1219 418 1142 471 1184 453 b 1272 290 1255 383 1272 340 l 1272 179 b 1219 51 1272 129 1255 87 b 1092 -1 1184 16 1142 -1 l 967 -1 b 839 51 917 -1 874 16 b 786 179 804 87 786 129 l 786 290 b 839 418 786 340 804 383 b 967 471 874 453 917 471 m 1119 121 b 1141 130 1128 121 1135 124 b 1150 151 1147 136 1150 143 l 1150 318 b 1141 340 1150 326 1147 334 b 1119 349 1135 346 1128 349 l 939 349 b 917 340 931 349 923 346 b 908 318 911 334 908 326 l 908 151 b 917 130 908 143 911 136 b 939 121 923 124 931 121 "},"&":{"ha":1303,"x_min":0,"x_max":0,"o":"m 1250 149 l 1250 4 l 1060 113 b 995 31 1047 79 1025 52 b 893 0 965 10 931 0 l 254 0 b 126 53 204 0 162 18 b 74 181 91 88 74 131 l 74 464 b 99 534 74 487 82 510 b 164 569 115 558 137 569 b 129 675 141 587 129 622 l 129 819 b 182 947 129 869 147 912 b 310 1000 217 982 260 1000 l 851 1000 b 969 957 896 1000 935 986 b 1032 850 1004 928 1025 893 l 1032 751 l 882 751 l 882 818 b 873 840 882 826 879 834 b 851 849 867 846 860 849 l 310 849 b 288 840 301 849 294 846 b 279 818 282 834 279 826 l 279 635 l 924 310 l 924 481 l 1074 481 l 1074 251 m 893 150 b 919 167 906 150 915 156 l 269 494 l 254 494 b 233 485 246 494 239 491 b 224 464 227 479 224 472 l 224 181 b 233 159 224 172 227 165 b 254 150 239 153 246 150 "},"'":{"ha":311,"x_min":0,"x_max":0,"o":"m 232 774 l 82 774 l 82 999 l 232 999 "},"(":{"ha":385,"x_min":0,"x_max":0,"o":"m 311 150 l 311 0 l 253 0 b 125 53 203 0 160 18 b 72 181 90 88 72 131 l 72 819 b 125 947 72 869 90 912 b 253 1000 160 982 203 1000 l 311 1000 l 311 850 l 253 850 b 231 841 244 850 237 847 b 222 819 225 835 222 828 l 222 181 b 231 159 222 172 225 165 b 253 150 237 153 244 150 "},")":{"ha":386,"x_min":0,"x_max":0,"o":"m 78 150 l 136 150 b 158 159 144 150 152 153 b 167 181 164 165 167 172 l 167 819 b 158 841 167 828 164 835 b 136 850 152 847 144 850 l 78 850 l 78 1000 l 136 1000 b 263 947 185 1000 228 982 b 317 819 299 912 317 869 l 317 181 b 263 53 317 131 299 88 b 136 0 228 18 185 0 l 78 0 "},"*":{"ha":682,"x_min":0,"x_max":0,"o":"m 647 722 l 463 663 l 576 504 l 456 417 l 340 574 l 226 417 l 106 504 l 219 663 l 35 722 l 81 865 l 265 804 l 265 999 l 415 999 l 415 804 l 600 865 "},"+":{"ha":601,"x_min":0,"x_max":0,"o":"m 374 688 l 374 486 l 579 486 l 579 336 l 374 336 l 374 132 l 224 132 l 224 336 l 24 336 l 24 486 l 224 486 l 224 688 "},",":{"ha":268,"x_min":0,"x_max":0,"o":"m 225 150 l 225 0 b 182 -117 225 -44 211 -83 b 75 -178 153 -150 118 -170 l 75 150 "},"-":{"ha":718,"x_min":0,"x_max":0,"o":"m 638 336 l 82 336 l 82 486 l 638 486 "},".":{"ha":297,"x_min":0,"x_max":0,"o":"m 225 0 l 75 0 l 75 150 l 225 150 "},"/":{"ha":724,"x_min":0,"x_max":0,"o":"m 696 1000 l 717 1000 l 717 822 l 29 0 l 8 0 l 8 178 "},":":{"ha":297,"x_min":0,"x_max":0,"o":"m 225 150 l 225 0 l 75 0 l 75 150 m 225 667 l 75 667 l 75 817 l 225 817 "},";":{"ha":268,"x_min":0,"x_max":0,"o":"m 221 667 l 71 667 l 71 817 l 221 817 m 221 150 l 221 0 b 178 -117 221 -44 206 -83 b 71 -178 149 -150 113 -170 l 71 150 "},"<":{"ha":657,"x_min":0,"x_max":0,"o":"m 578 179 l 578 6 l 7 336 l 7 486 l 578 815 l 578 642 l 176 411 "},"=":{"ha":886,"x_min":0,"x_max":0,"o":"m 804 199 l 82 199 l 82 349 l 804 349 m 804 463 l 82 463 l 82 613 l 804 613 "},">":{"ha":660,"x_min":0,"x_max":0,"o":"m 82 176 l 483 408 l 82 639 l 82 813 l 653 483 l 653 333 l 82 3 "},"?":{"ha":942,"x_min":0,"x_max":0,"o":"m 733 1000 b 861 947 783 1000 826 982 b 914 819 896 912 914 869 l 914 564 b 861 436 914 514 896 471 b 733 383 826 401 783 383 l 374 383 b 352 374 365 383 358 380 b 343 353 346 368 343 361 l 343 276 l 193 276 l 193 353 b 246 481 193 403 211 445 b 374 533 281 516 324 533 l 733 533 b 755 542 742 533 749 536 b 764 564 761 548 764 556 l 764 819 b 755 841 764 828 761 835 b 733 850 749 847 742 850 l 43 850 l 43 1000 m 193 0 l 193 150 l 343 150 l 343 0 "},"@":{"ha":1154,"x_min":0,"x_max":0,"o":"m 642 736 b 769 683 692 736 734 719 b 822 556 805 648 822 606 l 822 386 l 929 386 l 929 819 b 920 841 929 828 926 835 b 899 850 914 847 907 850 l 260 850 b 238 841 251 850 244 847 b 229 819 232 835 229 828 l 229 181 b 238 159 229 172 232 165 b 260 150 244 153 251 150 l 1079 150 l 1079 0 l 260 0 b 132 53 210 0 167 18 b 79 181 97 88 79 131 l 79 819 b 132 947 79 869 97 912 b 260 1000 167 982 210 1000 l 899 1000 b 1026 947 949 1000 991 982 b 1079 819 1062 912 1079 869 l 1079 264 l 517 264 b 389 317 467 264 424 281 b 336 444 354 352 336 394 l 336 556 b 389 683 336 606 354 648 b 517 736 424 719 467 736 m 700 386 l 700 583 b 691 605 700 592 697 599 b 669 614 685 611 678 614 l 489 614 b 467 605 481 614 473 611 b 458 583 461 599 458 592 l 458 417 b 467 395 458 408 461 401 b 489 386 473 389 481 386 "},"A":{"ha":1161,"x_min":0,"x_max":0,"o":"m 900 1000 b 1028 947 950 1000 993 982 b 1081 819 1063 912 1081 869 l 1081 0 l 931 0 l 931 350 l 231 350 l 231 0 l 81 0 l 81 819 b 133 947 81 869 98 912 b 261 1000 169 982 211 1000 m 931 500 l 931 819 b 922 841 931 828 928 835 b 900 850 916 847 908 850 l 261 850 b 240 841 253 850 246 847 b 231 819 234 835 231 828 l 231 500 "},"B":{"ha":1156,"x_min":0,"x_max":0,"o":"m 1022 538 b 1082 404 1062 502 1082 458 l 1082 181 b 1029 53 1082 131 1064 88 b 901 0 994 18 951 0 l 82 0 l 82 1000 l 860 1000 b 988 947 910 1000 952 982 b 1040 819 1023 912 1040 869 l 1040 615 b 1022 538 1040 589 1034 563 m 263 850 b 241 841 254 850 247 847 b 232 819 235 835 232 828 l 232 615 b 241 594 232 607 235 600 b 263 585 247 588 254 585 l 860 585 b 881 594 868 585 875 588 b 890 615 887 600 890 607 l 890 819 b 881 841 890 828 887 835 b 860 850 875 847 868 850 m 932 404 b 923 426 932 413 929 420 b 901 435 917 432 910 435 l 263 435 b 241 426 254 435 247 432 b 232 404 235 420 232 413 l 232 181 b 241 159 232 172 235 165 b 263 150 247 153 254 150 l 901 150 b 923 159 910 150 917 153 b 932 181 929 165 932 172 "},"C":{"ha":1142,"x_min":0,"x_max":0,"o":"m 258 850 b 237 841 250 850 243 847 b 228 819 231 835 228 828 l 228 181 b 237 159 228 172 231 165 b 258 150 243 153 250 150 l 1075 150 l 1075 0 l 258 0 b 131 53 208 0 166 18 b 78 181 95 88 78 131 l 78 819 b 131 947 78 869 95 912 b 258 1000 166 982 208 1000 l 1075 1000 l 1075 850 "},"D":{"ha":1158,"x_min":0,"x_max":0,"o":"m 900 1000 b 1028 947 950 1000 993 982 b 1081 819 1063 912 1081 869 l 1081 181 b 1028 53 1081 131 1063 88 b 900 0 993 18 950 0 l 81 0 l 81 1000 m 931 819 b 922 841 931 828 928 835 b 900 850 916 847 908 850 l 261 850 b 240 841 253 850 246 847 b 231 819 234 835 231 828 l 231 181 b 240 159 231 172 234 165 b 261 150 246 153 253 150 l 900 150 b 922 159 908 150 916 153 b 931 181 928 165 931 172 "},"E":{"ha":1064,"x_min":0,"x_max":0,"o":"m 997 850 l 231 850 l 231 575 l 847 575 l 847 425 l 231 425 l 231 150 l 997 150 l 997 0 l 81 0 l 81 1000 l 997 1000 "},"F":{"ha":1004,"x_min":0,"x_max":0,"o":"m 997 1000 l 997 850 l 231 850 l 231 575 l 847 575 l 847 425 l 231 425 l 231 0 l 81 0 l 81 1000 "},"G":{"ha":1153,"x_min":0,"x_max":0,"o":"m 1078 760 l 928 760 l 928 819 b 919 841 928 828 925 835 b 897 850 913 847 906 850 l 258 850 b 237 841 250 850 243 847 b 228 819 231 835 228 828 l 228 181 b 237 159 228 172 231 165 b 258 150 243 153 250 150 l 897 150 b 919 159 906 150 913 153 b 928 181 925 165 928 172 l 928 397 l 692 397 l 692 547 l 1078 547 l 1078 181 b 1025 53 1078 131 1060 88 b 897 0 990 18 947 0 l 258 0 b 131 53 208 0 166 18 b 78 181 95 88 78 131 l 78 819 b 131 947 78 869 95 912 b 258 1000 166 982 208 1000 l 897 1000 b 1025 947 947 1000 990 982 b 1078 819 1060 912 1078 869 "},"H":{"ha":1182,"x_min":0,"x_max":0,"o":"m 1103 1000 l 1103 0 l 953 0 l 953 425 l 229 425 l 229 0 l 79 0 l 79 1000 l 229 1000 l 229 575 l 953 575 l 953 1000 "},"I":{"ha":306,"x_min":0,"x_max":0,"o":"m 79 1000 l 229 1000 l 229 0 l 79 0 "},"J":{"ha":1083,"x_min":0,"x_max":0,"o":"m 856 1000 l 1006 1000 l 1006 181 b 953 53 1006 131 988 88 b 825 0 918 18 875 0 l 186 0 b 58 53 136 0 94 18 b 6 181 23 88 6 131 l 6 278 l 156 278 l 156 181 b 165 159 156 172 159 165 b 186 150 171 153 178 150 l 825 150 b 847 159 833 150 841 153 b 856 181 853 165 856 172 "},"K":{"ha":1107,"x_min":0,"x_max":0,"o":"m 1042 1000 l 1042 979 l 640 500 l 1042 21 l 1042 0 l 864 0 l 507 425 l 229 425 l 229 0 l 79 0 l 79 1000 l 229 1000 l 229 575 l 507 575 l 864 1000 "},"L":{"ha":1082,"x_min":0,"x_max":0,"o":"m 79 1001 l 229 1001 l 229 150 l 1079 150 l 1079 0 l 79 0 "},"M":{"ha":1289,"x_min":0,"x_max":0,"o":"m 1032 1000 l 1211 1000 l 1211 0 l 1061 0 l 1061 800 l 644 304 l 228 800 l 228 0 l 78 0 l 78 1000 l 256 1000 l 644 538 "},"N":{"ha":1156,"x_min":0,"x_max":0,"o":"m 928 1000 l 1078 1000 l 1078 0 l 900 0 l 228 800 l 228 0 l 78 0 l 78 1000 l 256 1000 l 928 200 "},"O":{"ha":1150,"x_min":0,"x_max":0,"o":"m 894 1000 b 1022 947 944 1000 987 982 b 1075 819 1057 912 1075 869 l 1075 181 b 1022 53 1075 131 1057 88 b 894 0 987 18 944 0 l 256 0 b 128 53 206 0 163 18 b 75 181 93 88 75 131 l 75 819 b 128 947 75 869 93 912 b 256 1000 163 982 206 1000 m 894 150 b 916 159 903 150 910 153 b 925 181 922 165 925 172 l 925 819 b 916 841 925 828 922 835 b 894 850 910 847 903 850 l 256 850 b 234 841 247 850 240 847 b 225 819 228 835 225 828 l 225 181 b 234 159 225 172 228 165 b 256 150 240 153 247 150 "},"P":{"ha":1099,"x_min":0,"x_max":0,"o":"m 897 999 b 1025 945 947 999 990 981 b 1078 818 1060 909 1078 867 l 1078 538 b 1025 410 1078 488 1060 446 b 897 357 990 375 947 357 l 258 357 b 228 360 251 357 241 358 l 228 0 l 78 0 l 78 999 m 928 818 b 919 840 928 826 925 834 b 897 849 913 846 906 849 l 258 849 b 237 840 250 849 243 846 b 228 818 231 834 228 826 l 228 538 b 237 516 228 529 231 522 b 258 507 243 510 250 507 l 897 507 b 919 516 906 507 913 510 b 928 538 925 522 928 529 "},"Q":{"ha":1228,"x_min":0,"x_max":0,"o":"m 1200 150 l 1200 0 l 256 0 b 128 53 206 0 163 18 b 75 181 93 88 75 131 l 75 819 b 128 947 75 869 93 912 b 256 1000 163 982 206 1000 l 894 1000 b 1022 947 944 1000 987 982 b 1075 819 1057 912 1075 869 l 1075 181 b 1072 150 1075 173 1074 163 m 894 150 b 916 159 903 150 910 153 b 925 181 922 165 925 172 l 925 819 b 916 841 925 828 922 835 b 894 850 910 847 903 850 l 256 850 b 234 841 247 850 240 847 b 225 819 228 835 225 828 l 225 181 b 234 159 225 172 228 165 b 256 150 240 153 247 150 "},"R":{"ha":1146,"x_min":0,"x_max":0,"o":"m 1076 538 b 1024 410 1076 488 1059 446 b 896 357 988 375 946 357 l 794 357 l 1076 21 l 1076 0 l 899 0 l 599 357 l 257 357 b 226 360 250 357 239 358 l 226 0 l 76 0 l 76 999 l 896 999 b 1024 945 946 999 988 981 b 1076 818 1059 909 1076 867 m 896 507 b 917 516 904 507 911 510 b 926 538 923 522 926 529 l 926 818 b 917 840 926 826 923 834 b 896 849 911 846 904 849 l 257 849 b 235 840 249 849 241 846 b 226 818 229 834 226 826 l 226 538 b 235 516 226 529 229 522 b 257 507 241 510 249 507 "},"S":{"ha":1142,"x_min":0,"x_max":0,"o":"m 1071 761 l 921 761 l 921 819 b 912 841 921 828 918 835 b 890 850 906 847 899 850 l 251 850 b 230 841 243 850 236 847 b 221 819 224 835 221 828 l 221 606 b 230 584 221 597 224 590 b 251 575 236 578 243 575 l 890 575 b 1018 522 940 575 983 557 b 1071 394 1053 487 1071 444 l 1071 181 b 1018 53 1071 131 1053 88 b 890 0 983 18 940 0 l 251 0 b 124 53 201 0 159 18 b 71 181 88 88 71 131 l 71 239 l 221 239 l 221 181 b 230 159 221 172 224 165 b 251 150 236 153 243 150 l 890 150 b 912 159 899 150 906 153 b 921 181 918 165 921 172 l 921 394 b 912 416 921 403 918 410 b 890 425 906 422 899 425 l 251 425 b 124 478 201 425 159 443 b 71 606 88 513 71 556 l 71 819 b 124 947 71 869 88 912 b 251 1000 159 982 201 1000 l 890 1000 b 1018 947 940 1000 983 982 b 1071 819 1053 912 1071 869 "},"T":{"ha":1054,"x_min":0,"x_max":0,"o":"m 1028 1000 l 1028 850 l 603 850 l 603 0 l 453 0 l 453 850 l 28 850 l 28 1000 "},"U":{"ha":1150,"x_min":0,"x_max":0,"o":"m 925 1000 l 1075 1000 l 1075 181 b 1022 53 1075 131 1057 88 b 894 0 987 18 944 0 l 256 0 b 128 53 206 0 163 18 b 75 181 93 88 75 131 l 75 1000 l 225 1000 l 225 181 b 234 159 225 172 228 165 b 256 150 240 153 247 150 l 894 150 b 916 159 903 150 910 153 b 925 181 922 165 925 172 "},"V":{"ha":1393,"x_min":0,"x_max":0,"o":"m 1181 1000 l 1353 1000 l 776 0 l 626 0 l 49 1000 l 222 1000 l 701 169 "},"W":{"ha":1638,"x_min":0,"x_max":0,"o":"m 1589 1000 l 1225 0 l 1103 0 l 818 779 l 535 0 l 532 1 l 533 0 l 413 0 l 49 1000 l 208 1000 l 474 271 l 739 1000 l 899 1000 l 1164 271 l 1429 1000 "},"X":{"ha":1128,"x_min":0,"x_max":0,"o":"m 1064 1000 l 1064 979 l 661 500 l 1064 21 l 1064 0 l 886 0 l 564 383 l 242 0 l 64 0 l 64 21 l 465 500 l 64 979 l 64 1000 l 242 1000 l 564 617 l 886 1000 "},"Y":{"ha":1119,"x_min":0,"x_max":0,"o":"m 1096 1000 l 635 375 l 635 0 l 485 0 l 485 375 l 24 1000 l 200 1000 l 560 544 l 918 1000 "},"Z":{"ha":1140,"x_min":0,"x_max":0,"o":"m 71 1000 l 1071 1000 l 1071 822 l 271 150 l 1071 150 l 1071 0 l 71 0 l 71 178 l 871 850 l 71 850 "},"[":{"ha":382,"x_min":0,"x_max":0,"o":"m 75 1000 l 314 1000 l 314 850 l 225 850 l 225 150 l 314 150 l 314 0 l 75 0 "},"\\":{"ha":722,"x_min":0,"x_max":0,"o":"m 28 1000 l 715 178 l 715 0 l 694 0 l 7 822 l 7 1000 "},"]":{"ha":383,"x_min":0,"x_max":0,"o":"m 71 1000 l 310 1000 l 310 0 l 71 0 l 71 150 l 160 150 l 160 850 l 71 850 "},"_":{"ha":1150,"x_min":0,"x_max":0,"o":"m 1075 -150 l 75 -150 l 75 0 l 1075 0 "},"`":{"ha":296,"x_min":0,"x_max":0,"o":"m 250 1149 l 100 1149 l 44 1374 l 194 1374 "},"a":{"ha":964,"x_min":0,"x_max":0,"o":"m 711 806 b 839 753 761 806 804 788 b 892 625 874 718 892 675 l 892 0 l 253 0 b 125 53 203 0 160 18 b 72 181 90 88 72 131 l 72 478 l 742 478 l 742 625 b 733 647 742 633 739 641 b 711 656 727 653 719 656 l 72 656 l 72 806 l 711 806 m 742 328 l 222 328 l 222 181 b 231 159 222 172 225 165 b 253 150 237 153 244 150 l 742 150 "},"b":{"ha":926,"x_min":0,"x_max":0,"o":"m 714 806 b 842 753 764 806 806 788 b 894 625 877 718 894 675 l 894 181 b 842 53 894 131 877 88 b 714 0 806 18 764 0 l 75 0 l 75 1069 l 225 1069 l 225 806 l 714 806 m 744 625 b 735 647 744 633 741 641 b 714 656 729 653 722 656 l 256 656 b 234 647 247 656 240 653 b 225 625 228 641 225 633 l 225 181 b 234 159 225 172 228 165 b 256 150 240 153 247 150 l 714 150 b 735 159 722 150 729 153 b 744 181 741 165 744 172 "},"c":{"ha":965,"x_min":0,"x_max":0,"o":"m 890 150 l 890 0 l 251 0 b 124 53 201 0 159 18 b 71 181 88 88 71 131 l 71 625 b 124 753 71 675 88 718 b 251 806 159 788 201 806 l 888 806 l 888 656 l 251 656 b 230 647 243 656 236 653 b 221 625 224 641 221 633 l 221 181 b 230 159 221 172 224 165 b 251 150 236 153 243 150 "},"d":{"ha":926,"x_min":0,"x_max":0,"o":"m 851 1069 l 851 0 l 213 0 b 85 53 163 0 120 18 b 32 181 50 88 32 131 l 32 625 b 85 753 32 675 50 718 b 213 806 120 788 163 806 l 701 806 l 701 1069 m 671 150 b 692 159 679 150 686 153 b 701 181 698 165 701 172 l 701 625 b 692 647 701 633 698 641 b 671 656 686 653 679 656 l 213 656 b 191 647 204 656 197 653 b 182 625 185 641 182 633 l 182 181 b 191 159 182 172 185 165 b 213 150 197 153 204 150 "},"e":{"ha":961,"x_min":0,"x_max":0,"o":"m 710 806 b 838 753 760 806 802 788 b 890 625 873 718 890 675 l 890 328 l 221 328 l 221 181 b 230 159 221 172 224 165 b 251 150 236 153 243 150 l 890 150 l 890 0 l 251 0 b 124 53 201 0 159 18 b 71 181 88 88 71 131 l 71 625 b 124 753 71 675 88 718 b 251 806 159 788 201 806 l 710 806 m 740 478 l 740 625 b 731 647 740 633 737 641 b 710 656 725 653 718 656 l 251 656 b 230 647 243 656 236 653 b 221 625 224 641 221 633 l 221 478 "},"f":{"ha":565,"x_min":0,"x_max":0,"o":"m 254 919 b 233 910 246 919 239 916 b 224 889 227 904 224 897 l 224 806 l 554 806 l 554 656 l 224 656 l 224 0 l 74 0 l 74 444 l 74 889 b 126 1017 74 939 91 981 b 254 1069 162 1052 204 1069 l 554 1069 l 554 919 l 254 919 "},"g":{"ha":949,"x_min":0,"x_max":0,"o":"m 876 306 l 876 -139 b 824 -267 876 -189 859 -231 b 696 -319 788 -302 746 -319 l 199 -319 l 199 -169 l 696 -169 b 717 -160 704 -169 711 -166 b 726 -139 723 -154 726 -147 l 726 0 l 238 0 b 110 53 188 0 145 18 b 57 181 75 88 57 131 l 57 625 b 110 753 57 675 75 718 b 238 806 145 788 188 806 l 696 806 b 824 753 746 806 788 788 b 876 625 859 718 876 675 l 876 307 m 696 150 b 717 159 704 150 711 153 b 726 181 723 165 726 172 l 726 625 b 717 647 726 633 723 641 b 696 656 711 653 704 656 l 238 656 b 216 647 229 656 222 653 b 207 625 210 641 207 633 l 207 181 b 216 159 207 172 210 165 b 238 150 222 153 229 150 "},"h":{"ha":928,"x_min":0,"x_max":0,"o":"m 714 806 b 841 753 763 806 805 788 b 894 625 877 718 894 675 l 894 0 l 744 0 l 744 625 b 735 647 744 633 741 641 b 714 656 729 653 722 656 l 256 656 b 234 647 247 656 240 653 b 225 625 228 641 225 633 l 225 0 l 75 0 l 75 1069 l 225 1069 l 225 806 l 714 806 "},"i":{"ha":289,"x_min":0,"x_max":0,"o":"m 72 806 l 222 806 l 222 0 l 72 0 m 222 1069 l 222 919 l 72 919 l 72 1069 "},"j":{"ha":332,"x_min":0,"x_max":0,"o":"m 265 1069 l 265 919 l 115 919 l 115 1069 m 265 306 l 265 -139 b 213 -267 265 -189 248 -231 b 85 -319 177 -302 135 -319 l -260 -319 l -260 -169 l 85 -169 b 106 -160 93 -169 100 -166 b 115 -139 112 -154 115 -147 l 115 803 l 265 803 "},"k":{"ha":897,"x_min":0,"x_max":0,"o":"m 885 806 l 885 785 l 539 403 l 885 21 l 885 0 l 707 0 l 406 328 l 225 328 l 225 0 l 75 0 l 75 1069 l 225 1069 l 225 478 l 406 478 l 707 806 "},"l":{"ha":419,"x_min":0,"x_max":0,"o":"m 72 1069 l 222 1069 l 222 181 b 231 159 222 172 225 165 b 253 150 237 153 244 150 l 403 150 l 403 0 l 253 0 b 125 53 203 0 160 18 b 72 181 90 88 72 131 l 72 625 "},"m":{"ha":1358,"x_min":0,"x_max":0,"o":"m 1104 806 b 1232 753 1154 806 1197 788 b 1285 625 1267 718 1285 675 l 1285 0 l 1136 0 l 1136 625 b 1127 647 1136 633 1133 641 b 1104 656 1121 653 1113 656 l 786 656 b 765 647 778 656 771 653 b 756 625 759 641 756 633 l 756 0 l 606 0 l 606 625 b 597 647 606 633 603 641 b 575 656 591 653 583 656 l 256 656 b 234 647 247 656 240 653 b 225 625 228 641 225 633 l 225 0 l 75 0 l 75 806 l 1104 806 "},"n":{"ha":967,"x_min":0,"x_max":0,"o":"m 714 806 b 842 753 764 806 806 788 b 894 625 877 718 894 675 l 894 0 l 744 0 l 744 625 b 735 647 744 633 741 641 b 714 656 729 653 722 656 l 256 656 b 234 647 247 656 240 653 b 225 625 228 641 225 633 l 225 0 l 75 0 l 75 806 l 714 806 "},"o":{"ha":961,"x_min":0,"x_max":0,"o":"m 710 806 b 838 753 760 806 802 788 b 890 625 873 718 890 675 l 890 181 b 838 53 890 131 873 88 b 710 0 802 18 760 0 l 251 0 b 124 53 201 0 159 18 b 71 181 88 88 71 131 l 71 625 b 124 753 71 675 88 718 b 251 806 159 788 201 806 m 251 656 b 230 647 243 656 236 653 b 221 625 224 641 221 633 l 221 181 b 230 159 221 172 224 165 b 251 150 236 153 243 150 l 710 150 b 731 159 718 150 725 153 b 740 181 737 165 740 172 l 740 625 b 731 647 740 633 737 641 b 710 656 725 653 718 656 "},"p":{"ha":922,"x_min":0,"x_max":0,"o":"m 714 806 b 842 753 764 806 806 788 b 894 625 877 718 894 675 l 894 181 b 842 53 894 131 877 88 b 714 0 806 18 764 0 l 225 0 l 225 -319 l 75 -319 l 75 806 l 714 806 m 744 625 b 735 647 744 633 741 641 b 714 656 729 653 722 656 l 256 656 b 234 647 247 656 240 653 b 225 625 228 641 225 633 l 225 181 b 234 159 225 172 228 165 b 256 150 240 153 247 150 l 714 150 b 735 159 722 150 729 153 b 744 181 741 165 744 172 "},"q":{"ha":922,"x_min":0,"x_max":0,"o":"m 28 625 b 81 753 28 675 45 718 b 208 806 116 788 158 806 l 847 806 l 847 -319 l 697 -319 l 697 0 l 208 0 b 81 53 158 0 116 18 b 28 181 45 88 28 131 l 28 625 m 178 181 b 187 159 178 172 181 165 b 208 150 193 153 200 150 l 667 150 b 688 159 675 150 682 153 b 697 181 694 165 697 172 l 697 625 b 688 647 697 633 694 641 b 667 656 682 653 675 656 l 208 656 b 187 647 200 656 193 653 b 178 625 181 641 178 633 "},"r":{"ha":711,"x_min":0,"x_max":0,"o":"m 703 806 l 703 656 l 253 656 b 231 647 244 656 237 653 b 222 625 225 641 222 633 l 222 0 l 72 0 l 72 181 l 72 625 b 125 753 72 675 90 718 b 253 806 160 788 203 806 "},"s":{"ha":953,"x_min":0,"x_max":0,"o":"m 886 594 l 736 594 l 736 625 b 727 647 736 633 733 641 b 706 656 721 653 714 656 l 247 656 b 226 647 239 656 232 653 b 217 625 220 641 217 633 l 217 508 b 226 487 217 500 220 493 b 247 478 232 481 239 478 l 706 478 b 833 425 756 478 798 460 b 886 297 869 390 886 347 l 886 181 b 833 53 886 131 869 88 b 706 0 798 18 756 0 l 247 0 b 119 53 197 0 155 18 b 67 181 84 88 67 131 l 67 211 l 217 211 l 217 181 b 226 159 217 172 220 165 b 247 150 232 153 239 150 l 706 150 b 727 159 714 150 721 153 b 736 181 733 165 736 172 l 736 297 b 727 319 736 306 733 313 b 706 328 721 325 714 328 l 247 328 b 119 381 197 328 155 345 b 67 508 84 416 67 458 l 67 625 b 119 753 67 675 84 718 b 247 806 155 788 197 806 l 706 806 b 833 753 756 806 798 788 b 886 625 869 718 886 675 "},"t":{"ha":569,"x_min":0,"x_max":0,"o":"m 224 656 l 224 181 b 233 159 224 172 227 165 b 254 150 239 153 246 150 l 554 150 l 554 0 l 254 0 b 126 53 204 0 162 18 b 74 181 91 88 74 131 l 74 625 l 74 1069 l 224 1069 l 224 806 l 554 806 l 554 656 "},"u":{"ha":965,"x_min":0,"x_max":0,"o":"m 893 806 l 893 181 b 840 53 893 131 875 88 b 713 0 805 18 763 0 l 254 0 b 126 53 204 0 162 18 b 74 181 91 88 74 131 l 74 806 l 224 806 l 224 181 b 233 159 224 172 227 165 b 254 150 239 153 246 150 l 713 150 b 734 159 721 150 728 153 b 743 181 740 165 743 172 l 743 806 "},"v":{"ha":1097,"x_min":0,"x_max":0,"o":"m 1068 806 l 624 0 l 474 0 l 29 806 l 203 806 l 549 169 l 896 806 "},"w":{"ha":1472,"x_min":0,"x_max":0,"o":"m 1439 806 l 1136 0 l 1014 0 l 743 599 l 488 0 l 485 1 l 486 0 l 365 0 l 49 806 l 208 806 l 426 271 l 658 806 l 829 806 l 1075 271 l 1279 806 "},"x":{"ha":961,"x_min":0,"x_max":0,"o":"m 897 806 l 897 785 l 578 410 l 897 21 l 897 0 l 719 0 l 481 293 l 242 0 l 64 0 l 64 21 l 382 410 l 64 785 l 64 806 l 242 806 l 481 526 l 719 806 "},"y":{"ha":951,"x_min":0,"x_max":0,"o":"m 878 306 l 878 -139 b 825 -267 878 -189 860 -231 b 697 -319 790 -302 747 -319 l 200 -319 l 200 -169 l 697 -169 b 719 -160 706 -169 713 -166 b 728 -139 725 -154 728 -147 l 728 0 l 239 0 b 111 53 189 0 146 18 b 58 181 76 88 58 131 l 58 803 l 208 803 l 208 181 b 217 159 208 172 211 165 b 239 150 223 153 231 150 l 697 150 b 719 159 706 150 713 153 b 728 181 725 165 728 172 l 728 803 l 878 803 l 878 308 "},"z":{"ha":969,"x_min":0,"x_max":0,"o":"m 75 806 l 894 806 l 894 628 l 275 150 l 894 150 l 894 0 l 75 0 l 75 178 l 694 656 l 75 656 "},"{":{"ha":401,"x_min":0,"x_max":0,"o":"m 243 181 b 252 159 243 172 246 165 b 274 150 258 153 265 150 l 332 150 l 332 0 l 274 0 b 146 53 224 0 181 18 b 93 181 111 88 93 131 l 93 397 l 32 433 l 32 583 l 93 618 l 93 819 b 146 947 93 869 111 912 b 274 1000 181 982 224 1000 l 332 1000 l 332 850 l 274 850 b 252 841 265 850 258 847 b 243 819 246 835 243 828 l 243 585 l 146 508 l 243 428 "},"|":{"ha":297,"x_min":0,"x_max":0,"o":"m 75 1150 l 225 1150 l 225 -151 l 75 -151 "},"}":{"ha":401,"x_min":0,"x_max":0,"o":"m 160 428 l 257 508 l 160 585 l 160 819 b 151 841 160 828 157 835 b 129 850 145 847 138 850 l 71 850 l 71 1000 l 129 1000 b 257 947 179 1000 222 982 b 310 819 292 912 310 869 l 310 618 l 371 583 l 371 433 l 310 397 l 310 181 b 257 53 310 131 292 88 b 129 0 222 18 179 0 l 71 0 l 71 150 l 129 150 b 151 159 138 150 145 153 b 160 181 157 165 160 172 "},"~":{"ha":561,"x_min":0,"x_max":0,"o":"m 414 414 b 522 450 450 414 486 426 l 522 347 b 414 322 483 331 447 322 b 278 369 381 322 336 338 b 136 417 219 401 172 417 b 33 385 81 417 46 406 l 33 489 b 136 508 64 502 98 508 b 278 464 172 508 220 494 b 414 414 337 434 382 418 "},"¡":{"ha":292,"x_min":0,"x_max":0,"o":"m 224 850 l 74 850 l 74 1000 l 224 1000 m 74 0 l 74 722 l 224 722 l 224 0 "},"¢":{"ha":883,"x_min":0,"x_max":0,"o":"m 531 669 l 531 150 l 863 150 l 863 0 l 531 0 l 531 -151 l 381 -151 l 381 0 l 226 0 b 99 53 176 0 134 18 b 46 181 63 88 46 131 l 46 639 b 99 767 46 689 63 731 b 226 819 134 802 176 819 l 381 819 l 381 997 l 531 997 l 531 819 l 863 819 l 863 669 m 381 669 l 226 669 b 205 660 218 669 211 666 b 196 639 199 654 196 647 l 196 181 b 205 159 196 172 199 165 b 226 150 211 153 218 150 l 381 150 "},"£":{"ha":1019,"x_min":0,"x_max":0,"o":"m 804 778 l 804 819 b 795 841 804 828 801 835 b 774 850 789 847 782 850 l 374 850 b 352 841 365 850 358 847 b 343 819 346 835 343 828 l 343 575 l 807 575 l 807 425 l 343 425 l 343 150 l 954 150 l 954 0 l 54 0 l 54 150 l 193 150 l 193 425 l 54 425 l 54 575 l 193 575 l 193 819 b 246 947 193 869 211 912 b 374 1000 281 982 324 1000 l 774 1000 b 901 947 824 1000 866 982 b 954 819 937 912 954 869 l 954 778 "},"¨":{"ha":535,"x_min":0,"x_max":0,"o":"m 461 1149 l 311 1149 l 311 1299 l 461 1299 m 225 1149 l 75 1149 l 75 1299 l 225 1299 "},"°":{"ha":610,"x_min":0,"x_max":0,"o":"m 368 1000 b 496 947 418 1000 461 982 b 549 819 531 912 549 869 l 549 708 b 496 581 549 658 531 616 b 368 528 461 545 418 528 l 243 528 b 115 581 193 528 150 545 b 63 708 80 616 63 658 l 63 819 b 115 947 63 869 80 912 b 243 1000 150 982 193 1000 m 396 650 b 417 659 404 650 411 653 b 426 681 423 665 426 672 l 426 847 b 417 869 426 856 423 863 b 396 878 411 875 404 878 l 215 878 b 194 869 207 878 200 875 b 185 847 188 863 185 856 l 185 681 b 194 659 185 672 188 665 b 215 650 200 653 207 650 "},"´":{"ha":296,"x_min":0,"x_max":0,"o":"m 101 1374 l 251 1374 l 196 1149 l 46 1149 "},"¶":{"ha":1157,"x_min":0,"x_max":0,"o":"m 78 818 b 131 945 78 867 95 909 b 258 999 166 981 208 999 l 1078 999 l 1078 0 l 928 0 l 928 357 l 788 357 l 788 0 l 638 0 l 638 357 l 258 357 b 131 410 208 357 166 375 b 78 538 95 446 78 488 l 78 818 m 788 507 l 928 507 l 928 849 l 788 849 m 228 538 b 237 516 228 529 231 522 b 258 507 243 510 250 507 l 638 507 l 638 849 l 258 849 b 237 840 250 849 243 846 b 228 818 231 834 228 826 "},"¸":{"ha":296,"x_min":0,"x_max":0,"o":"m 101 0 l 251 0 l 196 -225 l 46 -225 "},"¿":{"ha":938,"x_min":0,"x_max":0,"o":"m 207 0 b 79 53 157 0 114 18 b 26 181 44 88 26 131 l 26 436 b 79 564 26 486 44 529 b 207 617 114 599 157 617 l 567 617 b 588 626 575 617 582 620 b 597 647 594 632 597 639 l 597 732 l 747 732 l 747 647 b 694 519 747 597 730 555 b 567 467 659 484 617 467 l 207 467 b 185 458 199 467 191 464 b 176 436 179 452 176 444 l 176 181 b 185 159 176 172 179 165 b 207 150 191 153 199 150 l 897 150 l 897 0 m 747 850 l 597 850 l 597 1000 l 747 1000 "},"À":{"ha":1161,"x_min":0,"x_max":0,"o":"m 900 1000 b 1028 947 950 1000 993 982 b 1081 819 1063 912 1081 869 l 1081 0 l 931 0 l 931 350 l 231 350 l 231 0 l 81 0 l 81 819 b 133 947 81 869 98 912 b 261 1000 169 982 211 1000 m 931 500 l 931 819 b 922 841 931 828 928 835 b 900 850 916 847 908 850 l 261 850 b 240 841 253 850 246 847 b 231 819 234 835 231 828 l 231 500 m 683 1139 l 533 1139 l 478 1364 l 628 1364 "},"Á":{"ha":1161,"x_min":0,"x_max":0,"o":"m 900 1000 b 1028 947 950 1000 993 982 b 1081 819 1063 912 1081 869 l 1081 0 l 931 0 l 931 350 l 231 350 l 231 0 l 81 0 l 81 819 b 133 947 81 869 98 912 b 261 1000 169 982 211 1000 m 931 500 l 931 819 b 922 841 931 828 928 835 b 900 850 916 847 908 850 l 261 850 b 240 841 253 850 246 847 b 231 819 234 835 231 828 l 231 500 m 533 1363 l 683 1363 l 628 1138 l 478 1138 "},"Â":{"ha":1161,"x_min":0,"x_max":0,"o":"m 900 1000 b 1028 947 950 1000 993 982 b 1081 819 1063 912 1081 869 l 1081 0 l 931 0 l 931 350 l 231 350 l 231 0 l 81 0 l 81 819 b 133 947 81 869 98 912 b 261 1000 169 982 211 1000 m 931 500 l 931 819 b 922 841 931 828 928 835 b 900 850 916 847 908 850 l 261 850 b 240 841 253 850 246 847 b 231 819 234 835 231 828 l 231 500 m 411 1138 l 529 1333 l 632 1333 l 750 1138 l 646 1138 l 581 1243 l 514 1138 "},"Ã":{"ha":1161,"x_min":0,"x_max":0,"o":"m 900 1000 b 1028 947 950 1000 993 982 b 1081 819 1063 912 1081 869 l 1081 0 l 931 0 l 931 350 l 231 350 l 231 0 l 81 0 l 81 819 b 133 947 81 869 98 912 b 261 1000 169 982 211 1000 m 931 500 l 931 819 b 922 841 931 828 928 835 b 900 850 916 847 908 850 l 261 850 b 240 841 253 850 246 847 b 231 819 234 835 231 828 l 231 500 m 717 1236 b 825 1272 753 1236 789 1248 l 825 1169 b 717 1144 786 1153 750 1144 b 581 1192 684 1144 639 1160 b 439 1239 522 1223 475 1239 b 336 1207 383 1239 349 1228 l 336 1311 b 439 1331 367 1324 401 1331 b 581 1286 475 1331 522 1316 b 717 1236 640 1256 685 1240 "},"Ä":{"ha":1161,"x_min":0,"x_max":0,"o":"m 900 1000 b 1028 947 950 1000 993 982 b 1081 819 1063 912 1081 869 l 1081 0 l 931 0 l 931 350 l 231 350 l 231 0 l 81 0 l 81 819 b 133 947 81 869 98 912 b 261 1000 169 982 211 1000 m 931 500 l 931 819 b 922 841 931 828 928 835 b 900 850 916 847 908 850 l 261 850 b 240 841 253 850 246 847 b 231 819 234 835 231 828 l 231 500 m 774 1125 l 624 1125 l 624 1275 l 774 1275 m 538 1125 l 388 1125 l 388 1275 l 538 1275 "},"Å":{"ha":1161,"x_min":0,"x_max":0,"o":"m 900 1000 b 1028 947 950 1000 993 982 b 1081 819 1063 912 1081 869 l 1081 0 l 931 0 l 931 350 l 231 350 l 231 0 l 81 0 l 81 819 b 133 947 81 869 98 912 b 261 1000 169 982 211 1000 m 931 500 l 931 819 b 922 841 931 828 928 835 b 900 850 916 847 908 850 l 261 850 b 240 841 253 850 246 847 b 231 819 234 835 231 828 l 231 500 m 619 1363 b 672 1341 640 1363 657 1355 b 694 1289 687 1327 694 1309 l 694 1214 b 672 1162 694 1194 687 1176 b 619 1140 657 1147 640 1140 l 542 1140 b 489 1162 521 1140 504 1147 b 467 1214 474 1176 467 1194 l 467 1289 b 489 1341 467 1309 474 1327 b 542 1363 504 1355 521 1363 m 626 1196 b 639 1210 635 1196 639 1200 l 639 1293 b 626 1307 639 1302 635 1307 l 535 1307 b 522 1293 526 1307 522 1302 l 522 1210 b 535 1196 522 1200 526 1196 "},"Æ":{"ha":1910,"x_min":0,"x_max":0,"o":"m 1075 575 l 1692 575 l 1692 425 l 1075 425 l 1075 150 l 1842 150 l 1842 0 l 925 0 l 925 350 l 225 350 l 225 0 l 75 0 l 75 819 b 128 947 75 869 93 912 b 256 1000 163 982 206 1000 l 1842 1000 l 1842 850 l 1075 850 m 925 819 b 916 841 925 828 922 835 b 894 850 910 847 903 850 l 256 850 b 234 841 247 850 240 847 b 225 819 228 835 225 828 l 225 500 l 925 500 "},"Ç":{"ha":1142,"x_min":0,"x_max":0,"o":"m 258 850 b 237 841 250 850 243 847 b 228 819 231 835 228 828 l 228 181 b 237 159 228 172 231 165 b 258 150 243 153 250 150 l 1075 150 l 1075 0 l 674 0 l 618 -225 l 468 -225 l 524 0 l 258 0 b 131 53 208 0 166 18 b 78 181 95 88 78 131 l 78 819 b 131 947 78 869 95 912 b 258 1000 166 982 208 1000 l 1075 1000 l 1075 850 "},"È":{"ha":1064,"x_min":0,"x_max":0,"o":"m 997 850 l 231 850 l 231 575 l 847 575 l 847 425 l 231 425 l 231 150 l 997 150 l 997 0 l 81 0 l 81 1000 l 997 1000 m 635 1139 l 485 1139 l 429 1364 l 579 1364 "},"É":{"ha":1064,"x_min":0,"x_max":0,"o":"m 997 850 l 231 850 l 231 575 l 847 575 l 847 425 l 231 425 l 231 150 l 997 150 l 997 0 l 81 0 l 81 1000 l 997 1000 m 485 1364 l 635 1364 l 579 1139 l 429 1139 "},"Ê":{"ha":1064,"x_min":0,"x_max":0,"o":"m 997 850 l 231 850 l 231 575 l 847 575 l 847 425 l 231 425 l 231 150 l 997 150 l 997 0 l 81 0 l 81 1000 l 997 1000 m 363 1138 l 481 1333 l 583 1333 l 701 1138 l 597 1138 l 532 1243 l 465 1138 "},"Ë":{"ha":1064,"x_min":0,"x_max":0,"o":"m 997 850 l 231 850 l 231 575 l 847 575 l 847 425 l 231 425 l 231 150 l 997 150 l 997 0 l 81 0 l 81 1000 l 997 1000 m 725 1139 l 575 1139 l 575 1289 l 725 1289 m 489 1139 l 339 1139 l 339 1289 l 489 1289 "},"Ì":{"ha":306,"x_min":0,"x_max":0,"o":"m 79 1000 l 229 1000 l 229 0 l 79 0 m 256 1139 l 106 1139 l 50 1364 l 200 1364 "},"Í":{"ha":306,"x_min":0,"x_max":0,"o":"m 79 1000 l 229 1000 l 229 0 l 79 0 m 106 1364 l 256 1364 l 200 1139 l 50 1139 "},"Î":{"ha":306,"x_min":0,"x_max":0,"o":"m 79 1000 l 229 1000 l 229 0 l 79 0 m -17 1138 l 101 1333 l 204 1333 l 322 1138 l 218 1138 l 153 1243 l 86 1138 "},"Ï":{"ha":306,"x_min":0,"x_max":0,"o":"m 79 1000 l 229 1000 l 229 0 l 79 0 m 346 1139 l 196 1139 l 196 1289 l 346 1289 m 110 1139 l -40 1139 l -40 1289 l 110 1289 "},"Ñ":{"ha":1156,"x_min":0,"x_max":0,"o":"m 928 1000 l 1078 1000 l 1078 0 l 900 0 l 228 800 l 228 0 l 78 0 l 78 1000 l 256 1000 l 928 200 m 714 1236 b 822 1272 750 1236 786 1248 l 822 1169 b 714 1144 783 1153 747 1144 b 578 1192 681 1144 636 1160 b 436 1239 519 1223 472 1239 b 333 1207 381 1239 346 1228 l 333 1311 b 436 1331 364 1324 398 1331 b 578 1286 472 1331 520 1316 b 714 1236 637 1256 682 1240 "},"Ò":{"ha":1150,"x_min":0,"x_max":0,"o":"m 894 1000 b 1022 947 944 1000 987 982 b 1075 819 1057 912 1075 869 l 1075 181 b 1022 53 1075 131 1057 88 b 894 0 987 18 944 0 l 256 0 b 128 53 206 0 163 18 b 75 181 93 88 75 131 l 75 819 b 128 947 75 869 93 912 b 256 1000 163 982 206 1000 m 894 150 b 916 159 903 150 910 153 b 925 181 922 165 925 172 l 925 819 b 916 841 925 828 922 835 b 894 850 910 847 903 850 l 256 850 b 234 841 247 850 240 847 b 225 819 228 835 225 828 l 225 181 b 234 159 225 172 228 165 b 256 150 240 153 247 150 m 678 1139 l 528 1139 l 472 1364 l 622 1364 "},"Ó":{"ha":1150,"x_min":0,"x_max":0,"o":"m 894 1000 b 1022 947 944 1000 987 982 b 1075 819 1057 912 1075 869 l 1075 181 b 1022 53 1075 131 1057 88 b 894 0 987 18 944 0 l 256 0 b 128 53 206 0 163 18 b 75 181 93 88 75 131 l 75 819 b 128 947 75 869 93 912 b 256 1000 163 982 206 1000 m 894 150 b 916 159 903 150 910 153 b 925 181 922 165 925 172 l 925 819 b 916 841 925 828 922 835 b 894 850 910 847 903 850 l 256 850 b 234 841 247 850 240 847 b 225 819 228 835 225 828 l 225 181 b 234 159 225 172 228 165 b 256 150 240 153 247 150 m 528 1364 l 678 1364 l 622 1139 l 472 1139 "},"Ô":{"ha":1150,"x_min":0,"x_max":0,"o":"m 894 1000 b 1022 947 944 1000 987 982 b 1075 819 1057 912 1075 869 l 1075 181 b 1022 53 1075 131 1057 88 b 894 0 987 18 944 0 l 256 0 b 128 53 206 0 163 18 b 75 181 93 88 75 131 l 75 819 b 128 947 75 869 93 912 b 256 1000 163 982 206 1000 m 894 150 b 916 159 903 150 910 153 b 925 181 922 165 925 172 l 925 819 b 916 841 925 828 922 835 b 894 850 910 847 903 850 l 256 850 b 234 841 247 850 240 847 b 225 819 228 835 225 828 l 225 181 b 234 159 225 172 228 165 b 256 150 240 153 247 150 m 406 1138 l 524 1333 l 626 1333 l 744 1138 l 640 1138 l 575 1243 l 508 1138 "},"Õ":{"ha":1150,"x_min":0,"x_max":0,"o":"m 894 1000 b 1022 947 944 1000 987 982 b 1075 819 1057 912 1075 869 l 1075 181 b 1022 53 1075 131 1057 88 b 894 0 987 18 944 0 l 256 0 b 128 53 206 0 163 18 b 75 181 93 88 75 131 l 75 819 b 128 947 75 869 93 912 b 256 1000 163 982 206 1000 m 894 150 b 916 159 903 150 910 153 b 925 181 922 165 925 172 l 925 819 b 916 841 925 828 922 835 b 894 850 910 847 903 850 l 256 850 b 234 841 247 850 240 847 b 225 819 228 835 225 828 l 225 181 b 234 159 225 172 228 165 b 256 150 240 153 247 150 m 711 1236 b 819 1272 747 1236 783 1248 l 819 1169 b 711 1144 781 1153 744 1144 b 575 1192 679 1144 633 1160 b 433 1239 517 1223 469 1239 b 331 1207 378 1239 344 1228 l 331 1311 b 433 1331 361 1324 395 1331 b 576 1286 469 1331 517 1316 b 711 1236 634 1256 680 1240 "},"Ö":{"ha":1150,"x_min":0,"x_max":0,"o":"m 894 1000 b 1022 947 944 1000 987 982 b 1075 819 1057 912 1075 869 l 1075 181 b 1022 53 1075 131 1057 88 b 894 0 987 18 944 0 l 256 0 b 128 53 206 0 163 18 b 75 181 93 88 75 131 l 75 819 b 128 947 75 869 93 912 b 256 1000 163 982 206 1000 m 894 150 b 916 159 903 150 910 153 b 925 181 922 165 925 172 l 925 819 b 916 841 925 828 922 835 b 894 850 910 847 903 850 l 256 850 b 234 841 247 850 240 847 b 225 819 228 835 225 828 l 225 181 b 234 159 225 172 228 165 b 256 150 240 153 247 150 m 768 1139 l 618 1139 l 618 1289 l 768 1289 m 532 1139 l 382 1139 l 382 1289 l 532 1289 "},"×":{"ha":758,"x_min":0,"x_max":0,"o":"m 685 688 l 476 417 l 685 146 l 685 125 l 507 125 l 379 300 l 251 125 l 74 125 l 74 146 l 281 417 l 74 688 l 74 708 l 251 708 l 379 533 l 507 708 l 685 708 "},"Ù":{"ha":1150,"x_min":0,"x_max":0,"o":"m 925 1000 l 1075 1000 l 1075 181 b 1022 53 1075 131 1057 88 b 894 0 987 18 944 0 l 256 0 b 128 53 206 0 163 18 b 75 181 93 88 75 131 l 75 1000 l 225 1000 l 225 181 b 234 159 225 172 228 165 b 256 150 240 153 247 150 l 894 150 b 916 159 903 150 910 153 b 925 181 922 165 925 172 m 678 1139 l 528 1139 l 472 1364 l 622 1364 "},"Ú":{"ha":1150,"x_min":0,"x_max":0,"o":"m 925 1000 l 1075 1000 l 1075 181 b 1022 53 1075 131 1057 88 b 894 0 987 18 944 0 l 256 0 b 128 53 206 0 163 18 b 75 181 93 88 75 131 l 75 1000 l 225 1000 l 225 181 b 234 159 225 172 228 165 b 256 150 240 153 247 150 l 894 150 b 916 159 903 150 910 153 b 925 181 922 165 925 172 m 528 1364 l 678 1364 l 622 1139 l 472 1139 "},"Û":{"ha":1150,"x_min":0,"x_max":0,"o":"m 925 1000 l 1075 1000 l 1075 181 b 1022 53 1075 131 1057 88 b 894 0 987 18 944 0 l 256 0 b 128 53 206 0 163 18 b 75 181 93 88 75 131 l 75 1000 l 225 1000 l 225 181 b 234 159 225 172 228 165 b 256 150 240 153 247 150 l 894 150 b 916 159 903 150 910 153 b 925 181 922 165 925 172 m 406 1138 l 524 1333 l 626 1333 l 744 1138 l 640 1138 l 575 1243 l 508 1138 "},"Ü":{"ha":1150,"x_min":0,"x_max":0,"o":"m 925 1000 l 1075 1000 l 1075 181 b 1022 53 1075 131 1057 88 b 894 0 987 18 944 0 l 256 0 b 128 53 206 0 163 18 b 75 181 93 88 75 131 l 75 1000 l 225 1000 l 225 181 b 234 159 225 172 228 165 b 256 150 240 153 247 150 l 894 150 b 916 159 903 150 910 153 b 925 181 922 165 925 172 m 768 1139 l 618 1139 l 618 1289 l 768 1289 m 532 1139 l 382 1139 l 382 1289 l 532 1289 "},"Ý":{"ha":1119,"x_min":0,"x_max":0,"o":"m 1096 1000 l 635 375 l 635 0 l 485 0 l 485 375 l 24 1000 l 200 1000 l 560 544 l 918 1000 m 513 1364 l 663 1364 l 607 1139 l 457 1139 "},"ß":{"ha":1157,"x_min":0,"x_max":0,"o":"m 1079 619 b 1044 514 1079 580 1068 544 b 1079 408 1068 483 1079 448 l 1079 181 b 1026 53 1079 131 1062 88 b 899 0 991 18 949 0 l 379 0 l 379 150 l 899 150 b 920 159 907 150 914 153 b 929 181 926 165 929 172 l 929 408 b 920 430 929 417 926 424 b 899 439 914 436 907 439 l 379 439 l 379 574 l 899 574 b 920 583 907 574 914 577 b 929 604 926 589 929 596 l 929 818 b 920 840 929 826 926 834 b 899 849 914 846 907 849 l 260 849 b 238 840 251 849 244 846 b 229 818 232 834 229 826 l 229 0 l 79 0 l 79 819 b 132 947 79 869 97 912 b 260 1000 167 982 210 1000 l 899 1000 b 1017 957 943 1000 982 986 b 1079 850 1051 928 1072 893 "},"à":{"ha":1007,"x_min":0,"x_max":0,"o":"m 711 806 b 839 753 761 806 804 788 b 892 625 874 718 892 675 l 892 0 l 253 0 b 125 53 203 0 160 18 b 72 181 90 88 72 131 l 72 478 l 742 478 l 742 625 b 733 647 742 633 739 641 b 711 656 727 653 719 656 l 72 656 l 72 806 l 711 806 m 742 328 l 222 328 l 222 181 b 231 159 222 172 225 165 b 253 150 237 153 244 150 l 742 150 m 606 997 l 456 997 l 400 1222 l 550 1222 "},"á":{"ha":1007,"x_min":0,"x_max":0,"o":"m 711 806 b 839 753 761 806 804 788 b 892 625 874 718 892 675 l 892 0 l 253 0 b 125 53 203 0 160 18 b 72 181 90 88 72 131 l 72 478 l 742 478 l 742 625 b 733 647 742 633 739 641 b 711 656 727 653 719 656 l 72 656 l 72 806 l 711 806 m 742 328 l 222 328 l 222 181 b 231 159 222 172 225 165 b 253 150 237 153 244 150 l 742 150 m 456 1222 l 606 1222 l 550 997 l 400 997 "},"â":{"ha":1007,"x_min":0,"x_max":0,"o":"m 711 806 b 839 753 761 806 804 788 b 892 625 874 718 892 675 l 892 0 l 253 0 b 125 53 203 0 160 18 b 72 181 90 88 72 131 l 72 478 l 742 478 l 742 625 b 733 647 742 633 739 641 b 711 656 727 653 719 656 l 72 656 l 72 806 l 711 806 m 742 328 l 222 328 l 222 181 b 231 159 222 172 225 165 b 253 150 237 153 244 150 l 742 150 m 333 997 l 451 1193 l 554 1193 l 672 997 l 568 997 l 503 1103 l 436 997 "},"ã":{"ha":1007,"x_min":0,"x_max":0,"o":"m 711 806 b 839 753 761 806 804 788 b 892 625 874 718 892 675 l 892 0 l 253 0 b 125 53 203 0 160 18 b 72 181 90 88 72 131 l 72 478 l 742 478 l 742 625 b 733 647 742 633 739 641 b 711 656 727 653 719 656 l 72 656 l 72 806 l 711 806 m 742 328 l 222 328 l 222 181 b 231 159 222 172 225 165 b 253 150 237 153 244 150 l 742 150 m 639 1093 b 747 1129 675 1093 711 1105 l 747 1026 b 639 1001 708 1010 672 1001 b 503 1049 606 1001 561 1017 b 361 1096 444 1080 397 1096 b 258 1064 306 1096 271 1085 l 258 1168 b 361 1188 289 1181 323 1188 b 503 1143 397 1188 445 1173 b 639 1093 562 1113 607 1097 "},"ä":{"ha":1007,"x_min":0,"x_max":0,"o":"m 711 806 b 839 753 761 806 804 788 b 892 625 874 718 892 675 l 892 0 l 253 0 b 125 53 203 0 160 18 b 72 181 90 88 72 131 l 72 478 l 742 478 l 742 625 b 733 647 742 633 739 641 b 711 656 727 653 719 656 l 72 656 l 72 806 l 711 806 m 742 328 l 222 328 l 222 181 b 231 159 222 172 225 165 b 253 150 237 153 244 150 l 742 150 m 696 997 l 546 997 l 546 1147 l 696 1147 m 460 997 l 310 997 l 310 1147 l 460 1147 "},"å":{"ha":1007,"x_min":0,"x_max":0,"o":"m 711 806 b 839 753 761 806 804 788 b 892 625 874 718 892 675 l 892 0 l 253 0 b 125 53 203 0 160 18 b 72 181 90 88 72 131 l 72 478 l 742 478 l 742 625 b 733 647 742 633 739 641 b 711 656 727 653 719 656 l 72 656 l 72 806 l 711 806 m 742 328 l 222 328 l 222 181 b 231 159 222 172 225 165 b 253 150 237 153 244 150 l 742 150 m 542 1219 b 594 1198 562 1219 580 1212 b 617 1146 609 1184 617 1166 l 617 1071 b 594 1019 617 1050 609 1033 b 542 997 580 1004 562 997 l 464 997 b 411 1019 444 997 426 1004 b 389 1071 396 1033 389 1050 l 389 1146 b 411 1198 389 1166 396 1184 b 464 1219 426 1212 444 1219 m 549 1053 b 561 1067 557 1053 561 1057 l 561 1150 b 549 1164 561 1159 557 1164 l 457 1164 b 444 1150 449 1164 444 1159 l 444 1067 b 457 1053 444 1057 449 1053 "},"æ":{"ha":1636,"x_min":0,"x_max":0,"o":"m 1382 806 b 1510 753 1432 806 1475 788 b 1563 625 1545 718 1563 675 l 1563 328 l 893 328 l 893 176 b 924 150 895 159 905 150 l 1563 150 l 1563 0 l 254 0 b 126 53 204 0 162 18 b 74 181 91 88 74 131 l 74 478 l 743 478 l 743 625 b 734 647 743 633 740 641 b 713 656 728 653 721 656 l 74 656 l 74 806 l 1382 806 m 743 328 l 224 328 l 224 181 b 233 159 224 172 227 165 b 254 150 239 153 246 150 l 743 150 m 1413 478 l 1413 625 b 1403 647 1413 633 1409 641 b 1382 656 1397 653 1390 656 l 924 656 b 902 647 915 656 908 653 b 893 625 896 641 893 633 l 893 478 "},"ç":{"ha":963,"x_min":0,"x_max":0,"o":"m 890 150 l 890 0 l 251 0 b 124 53 201 0 159 18 b 71 181 88 88 71 131 l 71 625 b 124 753 71 675 88 718 b 251 806 159 788 201 806 l 888 806 l 888 656 l 251 656 b 230 647 243 656 236 653 b 221 625 224 641 221 633 l 221 181 b 230 159 221 172 224 165 b 251 150 236 153 243 150 m 433 0 l 583 0 l 528 -225 l 378 -225 "},"è":{"ha":886,"x_min":0,"x_max":0,"o":"m 710 806 b 838 753 760 806 802 788 b 890 625 873 718 890 675 l 890 328 l 221 328 l 221 181 b 230 159 221 172 224 165 b 251 150 236 153 243 150 l 890 150 l 890 0 l 251 0 b 124 53 201 0 159 18 b 71 181 88 88 71 131 l 71 625 b 124 753 71 675 88 718 b 251 806 159 788 201 806 l 710 806 m 740 478 l 740 625 b 731 647 740 633 737 641 b 710 656 725 653 718 656 l 251 656 b 230 647 243 656 236 653 b 221 625 224 641 221 633 l 221 478 m 546 997 l 396 997 l 340 1222 l 490 1222 "},"é":{"ha":886,"x_min":0,"x_max":0,"o":"m 710 806 b 838 753 760 806 802 788 b 890 625 873 718 890 675 l 890 328 l 221 328 l 221 181 b 230 159 221 172 224 165 b 251 150 236 153 243 150 l 890 150 l 890 0 l 251 0 b 124 53 201 0 159 18 b 71 181 88 88 71 131 l 71 625 b 124 753 71 675 88 718 b 251 806 159 788 201 806 l 710 806 m 740 478 l 740 625 b 731 647 740 633 737 641 b 710 656 725 653 718 656 l 251 656 b 230 647 243 656 236 653 b 221 625 224 641 221 633 l 221 478 m 396 1224 l 546 1224 l 490 999 l 340 999 "},"ê":{"ha":886,"x_min":0,"x_max":0,"o":"m 710 806 b 838 753 760 806 802 788 b 890 625 873 718 890 675 l 890 328 l 221 328 l 221 181 b 230 159 221 172 224 165 b 251 150 236 153 243 150 l 890 150 l 890 0 l 251 0 b 124 53 201 0 159 18 b 71 181 88 88 71 131 l 71 625 b 124 753 71 675 88 718 b 251 806 159 788 201 806 l 710 806 m 740 478 l 740 625 b 731 647 740 633 737 641 b 710 656 725 653 718 656 l 251 656 b 230 647 243 656 236 653 b 221 625 224 641 221 633 l 221 478 m 274 997 l 392 1193 l 494 1193 l 613 997 l 508 997 l 443 1103 l 376 997 "},"ë":{"ha":886,"x_min":0,"x_max":0,"o":"m 710 806 b 838 753 760 806 802 788 b 890 625 873 718 890 675 l 890 328 l 221 328 l 221 181 b 230 159 221 172 224 165 b 251 150 236 153 243 150 l 890 150 l 890 0 l 251 0 b 124 53 201 0 159 18 b 71 181 88 88 71 131 l 71 625 b 124 753 71 675 88 718 b 251 806 159 788 201 806 l 710 806 m 740 478 l 740 625 b 731 647 740 633 737 641 b 710 656 725 653 718 656 l 251 656 b 230 647 243 656 236 653 b 221 625 224 641 221 633 l 221 478 m 636 997 l 486 997 l 486 1147 l 636 1147 m 400 997 l 250 997 l 250 1147 l 400 1147 "},"ì":{"ha":297,"x_min":0,"x_max":0,"o":"m 78 806 l 228 806 l 228 0 l 78 0 m 228 999 l 78 999 l 22 1224 l 172 1224 "},"í":{"ha":297,"x_min":0,"x_max":0,"o":"m 71 806 l 221 806 l 221 0 l 71 0 m 124 1222 l 274 1222 l 218 997 l 68 997 "},"î":{"ha":297,"x_min":0,"x_max":0,"o":"m 71 806 l 221 806 l 221 0 l 71 0 m -21 997 l 97 1193 l 200 1193 l 318 997 l 214 997 l 149 1103 l 82 997 "},"ï":{"ha":297,"x_min":0,"x_max":0,"o":"m 76 806 l 226 806 l 226 0 l 76 0 m 342 1000 l 192 1000 l 192 1150 l 342 1150 m 106 1000 l -44 1000 l -44 1150 l 106 1150 "},"ñ":{"ha":983,"x_min":0,"x_max":0,"o":"m 714 806 b 842 753 764 806 806 788 b 894 625 877 718 894 675 l 894 0 l 744 0 l 744 625 b 735 647 744 633 741 641 b 714 656 729 653 722 656 l 256 656 b 234 647 247 656 240 653 b 225 625 228 641 225 633 l 225 0 l 75 0 l 75 806 l 714 806 m 628 1092 b 736 1128 664 1092 700 1104 l 736 1025 b 628 1000 697 1008 661 1000 b 492 1047 595 1000 550 1016 b 350 1094 433 1079 386 1094 b 247 1063 294 1094 260 1084 l 247 1167 b 350 1186 278 1180 312 1186 b 492 1142 386 1186 434 1171 b 628 1092 551 1112 596 1095 "},"ò":{"ha":961,"x_min":0,"x_max":0,"o":"m 710 806 b 838 753 760 806 802 788 b 890 625 873 718 890 675 l 890 181 b 838 53 890 131 873 88 b 710 0 802 18 760 0 l 251 0 b 124 53 201 0 159 18 b 71 181 88 88 71 131 l 71 625 b 124 753 71 675 88 718 b 251 806 159 788 201 806 m 251 656 b 230 647 243 656 236 653 b 221 625 224 641 221 633 l 221 181 b 230 159 221 172 224 165 b 251 150 236 153 243 150 l 710 150 b 731 159 718 150 725 153 b 740 181 737 165 740 172 l 740 625 b 731 647 740 633 737 641 b 710 656 725 653 718 656 m 583 999 l 433 999 l 378 1224 l 528 1224 "},"ó":{"ha":961,"x_min":0,"x_max":0,"o":"m 710 806 b 838 753 760 806 802 788 b 890 625 873 718 890 675 l 890 181 b 838 53 890 131 873 88 b 710 0 802 18 760 0 l 251 0 b 124 53 201 0 159 18 b 71 181 88 88 71 131 l 71 625 b 124 753 71 675 88 718 b 251 806 159 788 201 806 m 251 656 b 230 647 243 656 236 653 b 221 625 224 641 221 633 l 221 181 b 230 159 221 172 224 165 b 251 150 236 153 243 150 l 710 150 b 731 159 718 150 725 153 b 740 181 737 165 740 172 l 740 625 b 731 647 740 633 737 641 b 710 656 725 653 718 656 m 433 1224 l 583 1224 l 528 999 l 378 999 "},"ô":{"ha":961,"x_min":0,"x_max":0,"o":"m 710 806 b 838 753 760 806 802 788 b 890 625 873 718 890 675 l 890 181 b 838 53 890 131 873 88 b 710 0 802 18 760 0 l 251 0 b 124 53 201 0 159 18 b 71 181 88 88 71 131 l 71 625 b 124 753 71 675 88 718 b 251 806 159 788 201 806 m 251 656 b 230 647 243 656 236 653 b 221 625 224 641 221 633 l 221 181 b 230 159 221 172 224 165 b 251 150 236 153 243 150 l 710 150 b 731 159 718 150 725 153 b 740 181 737 165 740 172 l 740 625 b 731 647 740 633 737 641 b 710 656 725 653 718 656 m 311 997 l 429 1193 l 532 1193 l 650 997 l 546 997 l 481 1103 l 414 997 "},"õ":{"ha":961,"x_min":0,"x_max":0,"o":"m 710 806 b 838 753 760 806 802 788 b 890 625 873 718 890 675 l 890 181 b 838 53 890 131 873 88 b 710 0 802 18 760 0 l 251 0 b 124 53 201 0 159 18 b 71 181 88 88 71 131 l 71 625 b 124 753 71 675 88 718 b 251 806 159 788 201 806 m 251 656 b 230 647 243 656 236 653 b 221 625 224 641 221 633 l 221 181 b 230 159 221 172 224 165 b 251 150 236 153 243 150 l 710 150 b 731 159 718 150 725 153 b 740 181 737 165 740 172 l 740 625 b 731 647 740 633 737 641 b 710 656 725 653 718 656 m 617 1092 b 725 1128 653 1092 689 1104 l 725 1025 b 617 1000 686 1008 650 1000 b 481 1047 584 1000 539 1016 b 339 1094 422 1079 375 1094 b 236 1063 283 1094 249 1084 l 236 1167 b 339 1186 267 1180 301 1186 b 481 1142 375 1186 422 1171 b 617 1092 540 1112 585 1095 "},"ö":{"ha":961,"x_min":0,"x_max":0,"o":"m 710 806 b 838 753 760 806 802 788 b 890 625 873 718 890 675 l 890 181 b 838 53 890 131 873 88 b 710 0 802 18 760 0 l 251 0 b 124 53 201 0 159 18 b 71 181 88 88 71 131 l 71 625 b 124 753 71 675 88 718 b 251 806 159 788 201 806 m 251 656 b 230 647 243 656 236 653 b 221 625 224 641 221 633 l 221 181 b 230 159 221 172 224 165 b 251 150 236 153 243 150 l 710 150 b 731 159 718 150 725 153 b 740 181 737 165 740 172 l 740 625 b 731 647 740 633 737 641 b 710 656 725 653 718 656 m 674 1000 l 524 1000 l 524 1150 l 674 1150 m 438 1000 l 288 1000 l 288 1150 l 438 1150 "},"÷":{"ha":697,"x_min":0,"x_max":0,"o":"m 692 336 l 25 336 l 25 486 l 692 486 m 429 150 l 429 0 l 279 0 l 279 150 m 429 667 l 279 667 l 279 817 l 429 817 "},"ù":{"ha":965,"x_min":0,"x_max":0,"o":"m 893 806 l 893 181 b 840 53 893 131 875 88 b 713 0 805 18 763 0 l 254 0 b 126 53 204 0 162 18 b 74 181 91 88 74 131 l 74 806 l 224 806 l 224 181 b 233 159 224 172 227 165 b 254 150 239 153 246 150 l 713 150 b 734 159 721 150 728 153 b 743 181 740 165 743 172 l 743 806 m 585 999 l 435 999 l 379 1224 l 529 1224 "},"ú":{"ha":965,"x_min":0,"x_max":0,"o":"m 893 806 l 893 181 b 840 53 893 131 875 88 b 713 0 805 18 763 0 l 254 0 b 126 53 204 0 162 18 b 74 181 91 88 74 131 l 74 806 l 224 806 l 224 181 b 233 159 224 172 227 165 b 254 150 239 153 246 150 l 713 150 b 734 159 721 150 728 153 b 743 181 740 165 743 172 l 743 806 m 435 1224 l 585 1224 l 529 999 l 379 999 "},"û":{"ha":965,"x_min":0,"x_max":0,"o":"m 893 806 l 893 181 b 840 53 893 131 875 88 b 713 0 805 18 763 0 l 254 0 b 126 53 204 0 162 18 b 74 181 91 88 74 131 l 74 806 l 224 806 l 224 181 b 233 159 224 172 227 165 b 254 150 239 153 246 150 l 713 150 b 734 159 721 150 728 153 b 743 181 740 165 743 172 l 743 806 m 313 999 l 431 1194 l 533 1194 l 651 999 l 547 999 l 482 1104 l 415 999 "},"ü":{"ha":965,"x_min":0,"x_max":0,"o":"m 893 806 l 893 181 b 840 53 893 131 875 88 b 713 0 805 18 763 0 l 254 0 b 126 53 204 0 162 18 b 74 181 91 88 74 131 l 74 806 l 224 806 l 224 181 b 233 159 224 172 227 165 b 254 150 239 153 246 150 l 713 150 b 734 159 721 150 728 153 b 743 181 740 165 743 172 l 743 806 m 675 997 l 525 997 l 525 1147 l 675 1147 m 439 997 l 289 997 l 289 1147 l 439 1147 "},"ý":{"ha":956,"x_min":0,"x_max":0,"o":"m 878 306 l 878 -139 b 825 -267 878 -189 860 -231 b 697 -319 790 -302 747 -319 l 200 -319 l 200 -169 l 697 -169 b 719 -160 706 -169 713 -166 b 728 -139 725 -154 728 -147 l 728 0 l 239 0 b 111 53 189 0 146 18 b 58 181 76 88 58 131 l 58 803 l 208 803 l 208 181 b 217 159 208 172 211 165 b 239 150 223 153 231 150 l 697 150 b 719 159 706 150 713 153 b 728 181 725 165 728 172 l 728 803 l 878 803 l 878 308 m 431 1224 l 581 1224 l 525 999 l 375 999 "},"ÿ":{"ha":956,"x_min":0,"x_max":0,"o":"m 878 306 l 878 -139 b 825 -267 878 -189 860 -231 b 697 -319 790 -302 747 -319 l 200 -319 l 200 -169 l 697 -169 b 719 -160 706 -169 713 -166 b 728 -139 725 -154 728 -147 l 728 0 l 239 0 b 111 53 189 0 146 18 b 58 181 76 88 58 131 l 58 803 l 208 803 l 208 181 b 217 159 208 172 211 165 b 239 150 223 153 231 150 l 697 150 b 719 159 706 150 713 153 b 728 181 725 165 728 172 l 728 803 l 878 803 l 878 308 m 671 1000 l 521 1000 l 521 1150 l 671 1150 m 435 1000 l 285 1000 l 285 1150 l 435 1150 "},"ı":{"ha":297,"x_min":0,"x_max":0,"o":"m 72 806 l 222 806 l 222 0 l 72 0 "},"Œ":{"ha":1908,"x_min":0,"x_max":0,"o":"m 1074 575 l 1690 575 l 1690 425 l 1074 425 l 1074 150 l 1840 150 l 1840 0 l 254 0 b 126 53 204 0 162 18 b 74 181 91 88 74 131 l 74 819 b 126 947 74 869 91 912 b 254 1000 162 982 204 1000 l 1840 1000 l 1840 850 l 1074 850 m 893 150 b 915 159 901 150 909 153 b 924 181 921 165 924 172 l 924 819 b 915 841 924 828 921 835 b 893 850 909 847 901 850 l 254 850 b 233 841 246 850 239 847 b 224 819 227 835 224 828 l 224 181 b 233 159 224 172 227 165 b 254 150 239 153 246 150 l 893 150 "},"œ":{"ha":1635,"x_min":0,"x_max":0,"o":"m 892 328 l 892 181 b 901 159 892 172 895 165 b 922 150 907 153 914 150 l 1561 150 l 1561 0 l 253 0 b 125 53 203 0 160 18 b 72 181 90 88 72 131 l 72 625 b 125 753 72 675 90 718 b 253 806 160 788 203 806 l 1381 806 b 1508 753 1431 806 1473 788 b 1561 625 1544 718 1561 675 l 1561 328 m 922 656 b 901 647 914 656 907 653 b 892 625 895 641 892 633 l 892 478 l 1411 478 l 1411 625 b 1402 647 1411 633 1408 641 b 1381 656 1396 653 1389 656 l 922 656 m 711 150 b 733 159 719 150 727 153 b 742 181 739 165 742 172 l 742 625 b 733 647 742 633 739 641 b 711 656 727 653 719 656 l 253 656 b 231 647 244 656 237 653 b 222 625 225 641 222 633 l 222 181 b 231 159 222 172 225 165 b 253 150 237 153 244 150 l 711 150 "},"ˆ":{"ha":417,"x_min":0,"x_max":0,"o":"m 39 1147 l 157 1343 l 260 1343 l 378 1147 l 274 1147 l 208 1253 l 142 1147 "},"˚":{"ha":324,"x_min":0,"x_max":0,"o":"m 201 1372 b 254 1351 222 1372 239 1365 b 276 1299 269 1336 276 1319 l 276 1224 b 254 1172 276 1203 269 1186 b 201 1150 239 1157 222 1150 l 124 1150 b 71 1172 103 1150 86 1157 b 49 1224 56 1186 49 1203 l 49 1299 b 71 1351 49 1319 56 1336 b 124 1372 86 1365 103 1372 m 208 1206 b 221 1219 217 1206 221 1210 l 221 1303 b 208 1317 221 1312 217 1317 l 117 1317 b 104 1303 108 1317 104 1312 l 104 1219 b 117 1206 104 1210 108 1206 "},"˜":{"ha":560,"x_min":0,"x_max":0,"o":"m 413 1246 b 521 1282 449 1246 485 1258 l 521 1179 b 413 1154 482 1163 446 1154 b 276 1201 380 1154 335 1170 b 135 1249 218 1233 171 1249 b 32 1217 79 1249 45 1238 l 32 1321 b 135 1340 63 1334 97 1340 b 277 1296 171 1340 218 1325 b 413 1246 336 1266 381 1250 "},"–":{"ha":983,"x_min":0,"x_max":0,"o":"m 908 335 l 75 335 l 75 485 l 908 485 "},"—":{"ha":1142,"x_min":0,"x_max":0,"o":"m 1067 335 l 75 335 l 75 485 l 1067 485 "},"‘":{"ha":269,"x_min":0,"x_max":0,"o":"m 47 672 l 47 822 b 90 939 47 867 62 906 b 197 1000 119 972 155 993 l 197 672 "},"’":{"ha":268,"x_min":0,"x_max":0,"o":"m 225 1000 l 225 850 b 182 733 225 806 211 767 b 75 672 153 700 118 680 l 75 1000 "},"“":{"ha":525,"x_min":0,"x_max":0,"o":"m 64 672 l 64 822 b 107 939 64 867 78 906 b 214 1000 136 972 171 993 l 214 672 m 301 672 l 301 822 b 344 939 301 867 316 906 b 451 1000 373 972 409 993 l 451 672 "},"”":{"ha":525,"x_min":0,"x_max":0,"o":"m 463 1000 l 463 850 b 419 733 463 806 448 767 b 313 672 391 700 355 680 l 313 1000 m 225 1000 l 225 850 b 182 733 225 806 211 767 b 75 672 153 700 118 680 l 75 1000 "},"•":{"ha":515,"x_min":0,"x_max":0,"o":"m 272 572 b 332 514 312 572 332 553 l 332 486 b 272 428 332 447 312 428 l 240 428 b 182 486 201 428 182 447 l 182 514 b 240 572 182 553 201 572 "},"…":{"ha":797,"x_min":0,"x_max":0,"o":"m 225 0 l 75 0 l 75 150 l 225 150 m 722 0 l 572 0 l 572 150 l 722 150 m 474 0 l 324 0 l 324 150 l 474 150 "},"€":{"ha":1110,"x_min":0,"x_max":0,"o":"m 1046 150 l 1046 0 l 368 0 b 240 53 318 0 275 18 b 188 181 205 88 188 131 l 188 303 l 49 303 l 49 453 l 188 453 l 188 547 l 49 547 l 49 697 l 188 697 l 188 819 b 240 947 188 869 205 912 b 368 1000 275 982 318 1000 l 1046 1000 l 1046 850 l 368 850 b 347 841 360 850 353 847 b 338 819 341 835 338 828 l 338 697 l 896 697 l 896 547 l 338 547 l 338 453 l 896 453 l 896 303 l 338 303 l 338 181 b 347 159 338 172 341 165 b 368 150 353 153 360 150 "},"−":{"ha":718,"x_min":0,"x_max":0,"o":"m 638 336 l 82 336 l 82 486 l 638 486 "}}}
